<svg id="Layer_1" xmlns="http://www.w3.org/2000/svg" viewBox="0 0 116.6 30.7"><style>.st0{fill:#2ab37c}.st2{display:none;enable-background:new}.st3{display:inline;fill:#0a2b4e}.st4{fill:#0c2c4d}</style><title>Logo-6</title><g id="Page-1"><g id="Mobile---Home" transform="translate(-10 -22)"><g id="Logo-6" transform="translate(10 17)"><g id="Group-2" transform="translate(0 6)"><path id="Shape" class="st0" d="M41.8 24.3c-1.4 0-2.6-.2-3.7-.7-1.1-.4-2.1-1.1-3-1.9-.9-.7-1.5-1.8-1.9-2.9-.4-1-.6-2-.6-3.1-.1 1.7-.4 3.4-1 4.9-.4 1-1 1.9-1.5 2.8.5.6 1 1.2 1.5 1.7 1.3 1.3 2.8 2.2 4.6 3 1.8.7 3.7 1.1 5.8 1.1h15v-4.9H41.8z"/><path id="Shape_1_" d="M31.6 15.3v-1.5c.1-1.1.3-2 .6-3 .6-1.1 1.2-2 2-2.9S36 6.4 37.1 6c1.1-.5 2.4-.7 3.7-.7H57v-5H40.9c-2.1 0-4 .3-5.7 1s-3.3 1.6-4.5 2.9c-.6.5-1 1.1-1.5 1.8-.7.8-1.2 1.7-1.6 2.7-.6 1.6-1 3.4-1 5.2v1.5c-.1 1.2-.2 2.2-.6 3.2-.6 1.2-1.2 2.2-2 3-.8.9-1.8 1.5-2.9 1.9-1.1.5-2.4.7-3.7.7H5.2v-14H0v19.1h17.2c2.1 0 4.1-.4 5.8-1.2 1.8-.8 3.3-1.8 4.6-3.1.6-.5 1-1.2 1.4-1.8.6-.9 1.1-1.9 1.5-2.9.8-1.5 1.1-3.2 1.1-5z" fill="#0a2b4e"/><path id="Shape_2_" class="st0" d="M10.5 5.3h5.7c1.4 0 2.6.2 3.7.7s2.2 1.1 3 1.9 1.5 1.8 1.9 2.9c.4.9.6 1.8.6 2.9.1-1.8.4-3.6 1-5.2.4-1 1-1.8 1.5-2.7-.4-.6-.9-1.2-1.4-1.7-1.3-1.2-2.8-2.2-4.7-2.8C20.2.5 18.2.2 16.1.2H0v5l10.5.1z"/></g><g class="st2"><path class="st3" d="M62.1 7.4h2.5c1.4 0 2.6.4 3.4 1.2s1.2 2 1.2 3.6c0 .8-.1 1.5-.3 2.1s-.5 1.1-.9 1.6c-.4.4-.9.7-1.4.9-.6.2-1.2.3-1.9.3h-2.6V7.4zm2.5 8.4c.9 0 1.7-.3 2.2-.9s.8-1.5.8-2.7-.3-2.1-.8-2.6-1.3-.8-2.2-.8h-.7v7h.7zM71.3 9.9h4.9v7.4h-1.7v-6h-3.2V9.9zm3.9-1.3c-.3 0-.6-.1-.9-.3s-.3-.5-.3-.9.1-.6.4-.8.5-.3.9-.3.7.1.9.3c.2.2.3.5.3.8s-.1.6-.3.8c-.4.3-.7.4-1 .4zM79.9 18.5c0-.3.1-.6.3-.8.2-.3.5-.5.9-.7v-.1c-.2-.1-.4-.3-.5-.5-.2-.2-.2-.5-.2-.8 0-.2.1-.5.2-.7s.4-.5.6-.7v-.1c-.3-.2-.5-.4-.7-.8-.2-.3-.3-.7-.3-1.1 0-.4.1-.8.2-1.1s.4-.6.7-.8c.3-.2.6-.4 1-.5s.8-.2 1.2-.2c.4 0 .8.1 1.2.2h3v1.3h-1.7c.1.1.2.3.3.5.1.2.2.5.2.7 0 .4-.1.8-.2 1.1-.2.3-.4.6-.6.8-.3.2-.6.4-.9.5-.4.1-.7.2-1.2.2-.4 0-.7-.1-1.1-.2-.3.2-.5.4-.5.7 0 .5.5.7 1.4.7h1.5c1 0 1.7.1 2.2.4s.7.7.7 1.4c0 .4-.1.7-.3 1s-.5.6-.8.8c-.4.2-.8.4-1.3.6-.5.1-1.1.2-1.8.2-.5 0-1 0-1.4-.1s-.8-.2-1.1-.4-.5-.4-.7-.6-.3-.5-.3-.9zm1.5-.2c0 .3.2.6.5.8.4.2.9.3 1.6.3.4 0 .7 0 1-.1s.5-.2.8-.3c.2-.1.4-.2.5-.4.1-.1.2-.3.2-.5 0-.3-.1-.5-.4-.6s-.6-.1-1.1-.1H82.7c-.1 0-.3 0-.5-.1-.3.2-.4.3-.6.5-.2.2-.2.3-.2.5zm1.9-4.5c.4 0 .7-.1 1-.4s.4-.6.4-1.1-.1-.8-.4-1.1-.6-.4-1-.4-.7.1-1 .4c-.3.3-.4.6-.4 1.1s.1.8.4 1.1.6.4 1 .4zM90.8 11.3h-2V10l2-.1.2-2h1.4v2h3.3v1.4h-3.3v3c0 .6.1 1.1.4 1.3.2.3.7.4 1.3.4.3 0 .6 0 .9-.1s.5-.1.8-.2l.3 1.3c-.3.1-.7.2-1.1.3s-.8.1-1.3.1c-.6 0-1-.1-1.4-.2s-.7-.4-.9-.6c-.2-.3-.4-.6-.5-1s-.2-.8-.2-1.3l.1-3zM98.1 15.3c0-.4.1-.8.3-1.1.2-.3.5-.6.9-.8s.9-.4 1.6-.5c.6-.1 1.4-.2 2.3-.3 0-.4-.2-.8-.5-1-.3-.3-.7-.4-1.3-.4-.4 0-.8.1-1.2.2-.4.2-.8.3-1.2.5l-.6-1.2c.4-.3 1-.5 1.5-.7.6-.2 1.2-.3 1.8-.3 1 0 1.8.3 2.4.8s.8 1.3.8 2.4v4.4h-1.4l-.1-.9c-.4.3-.8.6-1.3.8-.5.2-1 .3-1.5.3-.4 0-.7-.1-1-.2s-.6-.3-.8-.4c-.2-.2-.4-.4-.5-.7-.2-.3-.2-.6-.2-.9zm1.6-.2c0 .3.1.6.4.7.3.1.6.2.9.2.4 0 .7-.1 1.1-.2.3-.2.7-.4 1-.7v-1.6c-.7 0-1.2.1-1.6.2-.4.1-.8.2-1.1.3-.3.1-.4.3-.6.4 0 .4-.1.5-.1.7zM107.1 6.7h4.1v8c0 .5.1.9.4 1.1.2.2.6.3.9.3.4 0 .8-.1 1.3-.3l.4 1.3c-.3.1-.7.2-1 .3-.3.1-.7.1-1.1.1-.9 0-1.5-.2-2-.8-.4-.5-.7-1.2-.7-2.1V8h-2.3V6.7z"/></g><g class="st2"><path class="st3" d="M61.9 30.4c0-.8.1-1.5.3-2.2.2-.6.5-1.2 1-1.6.4-.4.9-.8 1.4-1 .6-.2 1.2-.3 1.8-.3.6 0 1.1.1 1.6.4s.9.5 1.2.9l-1 1.1c-.2-.2-.5-.4-.8-.6-.3-.1-.6-.2-1-.2s-.8.1-1.1.2-.6.4-.9.7c-.2.3-.4.7-.6 1.1-.1.4-.2.9-.2 1.5s.1 1.1.2 1.5c.1.4.3.8.6 1.1.2.3.5.5.9.7.3.2.7.2 1.1.2s.8-.1 1.1-.3.6-.4.9-.7l1 1.1c-.4.5-.9.8-1.4 1.1s-1.1.4-1.7.4-1.2-.1-1.8-.3c-.5-.2-1-.5-1.4-1-.4-.4-.7-1-1-1.6-.1-.7-.2-1.4-.2-2.2zM70.8 31.6c0-.6.1-1.2.3-1.6.2-.5.5-.9.8-1.2s.7-.6 1.2-.8c.4-.2.9-.3 1.4-.3s.9.1 1.4.3c.5.2.8.4 1.2.8s.6.7.8 1.2c.2.5.3 1 .3 1.6 0 .6-.1 1.2-.3 1.6-.2.5-.5.9-.8 1.2s-.7.6-1.2.8c-.4.2-.9.3-1.4.3s-.9-.1-1.4-.3-.8-.4-1.2-.8-.6-.7-.8-1.2c-.2-.5-.3-1-.3-1.6zm1.8 0c0 .7.2 1.3.5 1.8s.8.7 1.4.7 1.1-.2 1.4-.7.5-1 .5-1.8-.2-1.3-.5-1.8c-.3-.4-.8-.7-1.4-.7s-1.1.2-1.4.7c-.3.4-.5 1-.5 1.8zM80.1 33.3c0-.4.1-.8.3-1.1.2-.3.5-.6.9-.8s.9-.4 1.6-.5c.6-.1 1.4-.2 2.3-.3 0-.4-.2-.8-.5-1-.3-.3-.7-.4-1.3-.4-.4 0-.8.1-1.2.2-.4.2-.8.3-1.2.5l-.6-1.2c.4-.3 1-.5 1.5-.7.6-.2 1.2-.3 1.8-.3 1 0 1.8.3 2.4.8s.8 1.3.8 2.4v4.4h-1.4l-.1-.9c-.4.3-.8.6-1.3.8s-1 .3-1.5.3c-.4 0-.7-.1-1-.2-.3-.1-.6-.3-.8-.4-.2-.2-.4-.4-.5-.7-.2-.3-.2-.6-.2-.9zm1.6-.2c0 .3.1.6.4.7.3.1.6.2.9.2.4 0 .7-.1 1.1-.2.3-.2.7-.4 1-.7v-1.6c-.7 0-1.2.1-1.6.2s-.8.2-1.1.3c-.3.1-.4.3-.6.4 0 .4-.1.5-.1.7zM89.1 24.7h4.1v8c0 .5.1.9.4 1.1.2.2.6.3.9.3.4 0 .8-.1 1.3-.3l.4 1.3c-.3.1-.7.2-1 .3s-.7.1-1.1.1c-.9 0-1.5-.2-2-.8-.4-.5-.7-1.2-.7-2.1v-6.5h-2.3v-1.4zM105.4 26.2c-.3-.1-.5-.2-.8-.2s-.6-.2-.8-.2c-.6 0-1 .1-1.2.4-.3.3-.4.7-.4 1.2v.4h2.8v1.4h-2.8v6h-1.7v-6h-2v-1.3l2-.1v-.4c0-.4.1-.8.2-1.2s.3-.7.6-1c.3-.3.6-.5 1-.6s.9-.2 1.4-.2c.4 0 .8 0 1.1.1.4.1.7.2 1 .3l-.4 1.4zM107.1 33.3c0-.4.1-.8.3-1.1.2-.3.5-.6.9-.8s.9-.4 1.6-.5c.6-.1 1.4-.2 2.3-.3 0-.4-.2-.8-.5-1-.3-.3-.7-.4-1.3-.4-.4 0-.8.1-1.2.2-.4.2-.8.3-1.2.5l-.6-1.2c.4-.3 1-.5 1.5-.7.6-.2 1.2-.3 1.8-.3 1 0 1.8.3 2.4.8s.8 1.3.8 2.4v4.4h-1.4l-.1-.9c-.4.3-.8.6-1.3.8s-1 .3-1.5.3c-.4 0-.7-.1-1-.2-.3-.1-.6-.3-.8-.4-.2-.2-.4-.4-.5-.7-.2-.3-.2-.6-.2-.9zm1.6-.2c0 .3.1.6.4.7.3.1.6.2.9.2.4 0 .7-.1 1.1-.2.3-.2.7-.4 1-.7v-1.6c-.7 0-1.2.1-1.6.2s-.8.2-1.1.3c-.3.1-.4.3-.6.4 0 .4-.1.5-.1.7zM116.1 31.6c0-.6.1-1.2.3-1.6.2-.5.5-.9.9-1.2s.8-.6 1.3-.8 1-.3 1.6-.3 1.1.1 1.6.3.8.4 1.1.7l-.8 1.1c-.3-.2-.6-.4-.9-.5s-.6-.2-.9-.2c-.7 0-1.3.2-1.8.7-.5.4-.7 1-.7 1.8 0 .4.1.7.2 1s.3.6.5.8.5.4.8.5.6.2 1 .2.8-.1 1.1-.2.7-.4 1-.6l.7 1.1c-.4.4-.9.6-1.4.8s-1 .3-1.6.3-1.1-.1-1.6-.3-.9-.4-1.3-.8c-.4-.3-.6-.7-.9-1.2-.1-.5-.2-1-.2-1.6zM124.9 31.6c0-.6.1-1.1.3-1.6.2-.5.5-.9.8-1.2.3-.3.8-.6 1.2-.8s.9-.3 1.4-.3 1 .1 1.5.3c.4.2.8.4 1.1.7s.5.7.7 1.1.2.9.2 1.4v.5c0 .2 0 .3-.1.3h-5.4c.1.7.3 1.2.8 1.5.4.4 1 .5 1.7.5.4 0 .7-.1 1.1-.2.3-.1.7-.3 1-.4l.6 1.1c-.4.2-.8.5-1.3.6-.5.2-1 .2-1.5.2-.6 0-1.1-.1-1.6-.3s-.9-.4-1.3-.8c-.4-.3-.6-.7-.9-1.2-.2-.3-.3-.8-.3-1.4zm5.6-.7c0-.6-.2-1-.5-1.4s-.7-.5-1.3-.5c-.2 0-.5 0-.7.1s-.4.2-.6.4c-.2.2-.3.4-.5.6-.1.2-.2.5-.3.8h3.9z"/></g></g></g><path class="st4" d="M62.2 2.6h2.6c3 0 4.8 1.6 4.8 4.9 0 3.3-1.8 4.9-4.7 4.9h-2.7V2.6zm2.6 8.4c2 0 3.1-1.1 3.1-3.5S66.8 4 64.8 4H64v7h.8zM71.3 2.8c0-.6.4-1 1.1-1s1.1.4 1.1 1-.5 1-1.1 1-1.1-.4-1.1-1zm.2 2.3h1.7v7.4h-1.7V5.1zM74.9 13.8c0-.6.4-1.2 1.1-1.6v-.1c-.4-.2-.7-.6-.7-1.2s.4-1.1.8-1.4c-.5-.4-1-1.1-1-1.9C75.1 5.9 76.5 5 78 5c.4 0 .8.1 1.1.2h2.6v1.3h-1.3c.2.3.4.7.4 1.2 0 1.6-1.2 2.5-2.8 2.5-.3 0-.7-.1-1-.2-.2.2-.4.4-.4.7 0 .4.3.7 1.2.7h1.3c1.8 0 2.7.5 2.7 1.8 0 1.5-1.5 2.6-3.9 2.6-1.7-.1-3-.7-3-2zm5.3-.4c0-.6-.5-.7-1.3-.7h-1c-.4 0-.7 0-1-.1-.4.3-.6.6-.6 1 0 .7.7 1.1 1.9 1.1 1.2-.1 2-.7 2-1.3zm-.9-5.9c0-.9-.6-1.5-1.3-1.5s-1.3.5-1.3 1.5c0 .9.6 1.5 1.3 1.5.8 0 1.3-.5 1.3-1.5zM83 2.8c0-.6.4-1 1.1-1s1.1.4 1.1 1-.5 1-1.1 1-1.1-.4-1.1-1zm.2 2.3h1.7v7.4h-1.7V5.1zM87.4 10V6.5h-1V5.2l1.1-.1.2-2h1.4v2H91v1.4h-1.9V10c0 .9.3 1.3 1 1.3.3 0 .6-.1.8-.2l.3 1.3c-.4.1-.9.3-1.5.3-1.7-.1-2.3-1.1-2.3-2.7zM91.8 10.5c0-1.6 1.3-2.4 4.3-2.7 0-.8-.3-1.4-1.4-1.4-.7 0-1.4.3-2.1.7L92 5.9c.8-.5 1.9-1 3-1 1.8 0 2.7 1.1 2.7 3.2v4.4h-1.4l-.1-.8h-.1c-.7.6-1.4 1-2.3 1-1.1-.1-2-.9-2-2.2zm4.4 0V8.8c-2 .3-2.7.8-2.7 1.5s.5.9 1.1.9c.6.1 1-.2 1.6-.7zM100 10.6V1.9h1.7v8.8c0 .4.2.6.4.6h.3l.2 1.3c-.2.1-.5.2-.9.2-1.3-.2-1.7-1-1.7-2.2zM61.7 24.6c0-3.2 2-5.1 4.5-5.1 1.2 0 2.2.6 2.8 1.2l-.9 1.1c-.5-.5-1.1-.8-1.8-.8-1.6 0-2.7 1.3-2.7 3.6 0 2.2 1.1 3.6 2.7 3.6.9 0 1.5-.4 2.1-1l.9 1.1c-.8.9-1.8 1.4-3.1 1.4-2.5-.1-4.5-1.9-4.5-5.1zM70.3 25.8c0-2.5 1.7-3.9 3.5-3.9s3.5 1.4 3.5 3.9c0 2.4-1.7 3.9-3.5 3.9-1.9-.1-3.5-1.5-3.5-3.9zm5.2 0c0-1.5-.7-2.5-1.7-2.5-1.1 0-1.7 1-1.7 2.5s.6 2.4 1.7 2.4c1 0 1.7-1 1.7-2.4zM78.4 27.5c0-1.6 1.3-2.4 4.3-2.7 0-.8-.3-1.4-1.4-1.4-.7 0-1.4.3-2.1.7l-.6-1.2c.8-.5 1.9-1 3-1 1.8 0 2.7 1.1 2.7 3.2v4.4H83l-.1-.8h-.1c-.7.6-1.4 1-2.3 1-1.2-.1-2.1-.9-2.1-2.2zm4.3 0v-1.7c-2 .3-2.7.8-2.7 1.5s.5.9 1.1.9c.6.1 1.1-.2 1.6-.7zM86.5 27.6v-8.7h1.7v8.8c0 .4.2.6.4.6h.3l.2 1.3c-.2.1-.5.1-.9.1-1.2-.1-1.7-.9-1.7-2.1zM90.9 23.4h-1v-1.3l1-.1v-.8c0-1.5.7-2.6 2.4-2.6.5 0 1 .1 1.3.3l-.3 1.3c-.3-.1-.6-.2-.8-.2-.6 0-.9.4-.9 1.2v.8H94v1.4h-1.4v6h-1.7v-6zM94.7 27.5c0-1.6 1.3-2.4 4.3-2.7 0-.8-.3-1.4-1.4-1.4-.7 0-1.4.3-2.1.7l-.6-1.2c.8-.5 1.9-1 3-1 1.8 0 2.7 1.1 2.7 3.2v4.4h-1.4l-.1-.8H99c-.7.6-1.4 1-2.3 1-1.2-.1-2-.9-2-2.2zm4.3 0v-1.7c-2 .3-2.7.8-2.7 1.5s.5.9 1.1.9c.6.1 1-.2 1.6-.7zM102.3 25.8c0-2.5 1.7-3.9 3.7-3.9.9 0 1.6.4 2.2.8l-.8 1.1c-.4-.3-.8-.5-1.2-.5-1.2 0-2 1-2 2.5s.8 2.4 2 2.4c.6 0 1.1-.3 1.5-.6l.7 1.1c-.7.6-1.6.9-2.4.9-2.1 0-3.7-1.4-3.7-3.8zM108.9 25.8c0-2.4 1.7-3.9 3.4-3.9 2 0 3 1.4 3 3.5 0 .3 0 .7-.1.8h-4.7c.2 1.3 1 2.1 2.2 2.1.6 0 1.2-.2 1.7-.5l.6 1.1c-.7.5-1.6.8-2.5.8-2-.1-3.6-1.5-3.6-3.9zm4.9-.7c0-1.1-.5-1.8-1.5-1.8-.9 0-1.6.6-1.8 1.8h3.3z"/></g></svg>