<svg width="149" height="25" viewBox="0 0 149 25" xmlns="http://www.w3.org/2000/svg"><title>Logo-1</title><g fill-rule="nonzero" fill="none"><path d="M36.093 20.6c-1.168 0-2.197-.2-3.159-.6-.96-.4-1.785-1-2.54-1.667-.755-.666-1.236-1.6-1.648-2.6-.343-.866-.549-1.8-.549-2.733-.069 1.533-.343 3-.893 4.333A14.159 14.159 0 0 1 26 19.8c.412.533.824 1.067 1.304 1.533 1.099 1.134 2.403 2 3.914 2.667 1.51.667 3.158 1 4.943 1H49v-4.333H36.093V20.6z" fill="#2AB37C"/><path d="M27.207 12.97v-1.276c.069-.941.274-1.748.548-2.554.48-.941 1.028-1.748 1.714-2.487.685-.739 1.576-1.277 2.535-1.68.96-.403 2.056-.605 3.153-.605H49V0H35.157c-1.782 0-3.427.269-4.935.874-1.507.604-2.81 1.41-3.906 2.486-.48.47-.89.941-1.302 1.546-.48.74-.96 1.478-1.302 2.352a12.006 12.006 0 0 0-.891 4.503v1.277c-.069 1.008-.206 1.881-.548 2.755-.48 1.008-1.028 1.882-1.714 2.554-.685.739-1.576 1.277-2.535 1.68-.96.403-2.056.605-3.153.605H4.455V8.535H0V25h14.803c1.782 0 3.495-.336 5.003-1.008a13.305 13.305 0 0 0 3.974-2.688c.48-.47.891-1.008 1.234-1.546.548-.74.96-1.613 1.302-2.486.548-1.277.822-2.756.891-4.302z" fill="#0A2B4E"/><path d="M8.966 4.457h4.896c1.172 0 2.207.206 3.172.617.966.412 1.863.96 2.552 1.715.69.754 1.31 1.577 1.655 2.605.345.823.483 1.646.552 2.606.07-1.646.345-3.223.897-4.594.344-.892.827-1.646 1.31-2.4-.345-.549-.759-1.029-1.241-1.509-1.104-1.097-2.414-1.988-4-2.537C17.379.274 15.655 0 13.862 0H0v4.457h8.966z" fill="#2AB37C"/><path d="M56.412 16.36V1.411h8.645c1.03 0 2.058.206 2.95.549a6.512 6.512 0 0 1 2.333 1.509A6.845 6.845 0 0 1 71.85 5.8a8.34 8.34 0 0 1 .549 2.949 8.435 8.435 0 0 1-.55 3.017c-.342.96-.891 1.714-1.509 2.4a6.12 6.12 0 0 1-2.333 1.577c-.892.411-1.852.617-2.95.617h-8.645zm8.714-2.606c.686 0 1.303-.137 1.852-.343.549-.274 1.098-.617 1.51-1.028a4.07 4.07 0 0 0 .96-1.577c.206-.617.343-1.235.343-1.989s-.137-1.371-.343-1.92c-.206-.617-.549-1.097-.96-1.508a4.888 4.888 0 0 0-1.51-1.029c-.549-.274-1.166-.343-1.852-.343h-6.107v9.737h6.107zm21.75 2.606c-1.03 0-1.99-.206-2.882-.617-.892-.412-1.647-.96-2.333-1.577-.686-.686-1.166-1.509-1.51-2.4-.342-.96-.548-1.92-.548-3.017 0-1.098.206-2.126.549-3.018.343-.891.892-1.645 1.51-2.331a6.85 6.85 0 0 1 2.332-1.509 7.98 7.98 0 0 1 2.882-.548h8.096v2.606h-8.096c-.686 0-1.304.137-1.853.342a3.504 3.504 0 0 0-1.44 1.029c-.412.48-.755.96-.961 1.509-.206.617-.343 1.234-.343 1.988 0 .686.137 1.372.343 1.989.206.617.549 1.097.96 1.577.412.48.892.754 1.441 1.028.55.275 1.167.343 1.853.343h6.38V9.846h-6.723V7.65h9.4v8.709h-9.057zm21.75 0V4.017h-5.695V1.411h13.997v2.606h-5.694V16.36h-2.608zm22.78 0l-2.264-3.771h-7.068l1.235-2.126h4.598l-3.294-5.554-6.793 11.451h-3.019l8.577-14.331a1.62 1.62 0 0 1 .549-.618c.206-.137.48-.205.755-.205.274 0 .549.068.754.205.206.138.344.343.55.618l8.645 14.331h-3.225zm4.803 0V1.411h2.607v12.343h10.086v2.606H136.21z" fill="#0A2B4E"/><path fill="#2AB37C" d="M77.27 2.509V1.41h-2.607v3.703z"/><path fill="#0A2B4E" d="M74.663 6.554v9.806h2.607V3.949z"/><path fill="#2AB37C" d="M101.079 2.783V1.41h-2.607V5.39z"/><path fill="#0A2B4E" d="M98.472 6.829v9.531h2.607V4.223z"/><path d="M59.026 25c-.343 0-.686-.069-.96-.206-.275-.137-.55-.274-.756-.548-.205-.206-.411-.48-.48-.823a2.19 2.19 0 0 1-.206-.96c0-.343.069-.686.206-.96.137-.274.275-.549.48-.754.206-.206.48-.343.755-.48.275-.138.618-.206.96-.206h2.677v.823h-2.676c-.206 0-.412.068-.618.137-.206.068-.343.206-.48.343-.137.137-.274.274-.343.48-.069.205-.137.411-.137.617 0 .206.068.411.137.617.069.206.206.343.343.48.137.137.274.274.48.343.206.068.412.137.618.137h2.676V25h-2.676zm8.85 0c-.342 0-.685-.069-.96-.206-.274-.137-.549-.274-.754-.548-.206-.206-.412-.48-.48-.823a2.19 2.19 0 0 1-.207-.96c0-.343.069-.686.206-.96.137-.274.275-.549.48-.754.206-.206.48-.343.755-.48.275-.138.618-.206.96-.206h1.167c.343 0 .686.068.96.206.275.137.55.274.756.48.205.205.343.48.48.754.137.274.206.617.206.96 0 .343-.069.686-.206.96a5.114 5.114 0 0 1-.48.823c-.206.205-.48.411-.755.548a2.193 2.193 0 0 1-.96.206h-1.167zm1.236-.823c.206 0 .412-.068.617-.137.206-.069.343-.206.48-.343.138-.137.275-.343.344-.48.068-.206.137-.411.137-.617 0-.206-.069-.411-.137-.617-.069-.206-.206-.343-.343-.48-.138-.137-.275-.274-.48-.343-.206-.069-.412-.137-.618-.137h-1.167c-.205 0-.411.068-.617.137-.206.069-.343.206-.48.343-.138.137-.275.274-.343.48-.069.206-.138.411-.138.617 0 .206.069.411.138.617.068.206.205.343.343.48.137.137.274.274.48.343.206.069.412.137.617.137h1.167zM79.884 25l-.755-1.234h-2.332l.411-.686h1.51l-1.098-1.851L75.424 25h-.96l2.813-4.731.206-.206c.068-.069.137-.069.274-.069.069 0 .206 0 .275.069l.205.206L81.051 25h-1.167zm4.803 0v-4.937h.823v4.046h3.294V25h-4.117zm8.028 0v-4.937H96.9v.823h-3.293V25h-.892zm1.51-1.989v-.754h2.47v.754h-2.47zM105.201 25l-.754-1.234h-2.333l.412-.686h1.509l-1.098-1.851L100.743 25h-.961l2.813-4.731.206-.206c.069-.069.137-.069.274-.069.069 0 .206 0 .275.069l.206.206L106.369 25h-1.167zm6.381 0c-.343 0-.686-.069-.96-.206-.275-.137-.55-.274-.755-.548-.206-.206-.412-.48-.48-.823a2.19 2.19 0 0 1-.206-.96c0-.343.069-.686.206-.96.137-.274.274-.549.48-.754.206-.206.48-.343.755-.48.274-.138.617-.206.96-.206h2.676v.823h-2.676c-.205 0-.411.068-.617.137-.206.068-.343.206-.48.343-.138.137-.275.274-.343.48-.07.205-.138.411-.138.617 0 .206.069.411.138.617.068.206.205.343.343.48.137.137.274.274.48.343.206.068.412.137.617.137h2.676V25h-2.676zm6.587 0v-4.937h4.392v.823h-3.568v3.223h3.568V25h-4.392zm1.51-2.126v-.754h2.744v.754h-2.744z" fill="#0E2D4C"/></g></svg>